<?xml version="1.0" encoding="UTF-8" standalone="no"?>
<!DOCTYPE svg PUBLIC "-//W3C//DTD SVG 1.1//EN"
 "http://www.w3.org/Graphics/SVG/1.1/DTD/svg11.dtd">
<!-- Generated by graphviz version 2.47.0 (20210316.0004)
 -->
<!-- Title: dependencies Pages: 1 -->
<svg width="504pt" height="211pt"
 viewBox="0.00 0.00 504.00 211.00" xmlns="http://www.w3.org/2000/svg" xmlns:xlink="http://www.w3.org/1999/xlink">
<g id="graph0" class="graph" transform="scale(1 1) rotate(0) translate(4 207)">
<title>dependencies</title>
<polygon fill="white" stroke="transparent" points="-4,4 -4,-207 500,-207 500,4 -4,4"/>
<text text-anchor="start" x="227.01" y="-42.4" font-family="Times-12" font-weight="bold" font-size="14.00">Legend</text>
<polygon fill="#ffffb3" stroke="transparent" points="14,-10 14,-30 34,-30 34,-10 14,-10"/>
<text text-anchor="start" x="37.63" y="-15.4" font-family="Times-12" font-size="14.00"> &#160;Declarations</text>
<polygon fill="#8dd3c7" stroke="transparent" points="127,-10 127,-30 147,-30 147,-10 127,-10"/>
<text text-anchor="start" x="150.73" y="-15.4" font-family="Times-12" font-size="14.00"> &#160;Module</text>
<polygon fill="#80b1d3" stroke="transparent" points="213,-10 213,-30 233,-30 233,-10 213,-10"/>
<text text-anchor="start" x="236.78" y="-15.4" font-family="Times-12" font-size="14.00"> &#160;Bootstrap</text>
<polygon fill="#fdb462" stroke="transparent" points="310,-10 310,-30 330,-30 330,-10 310,-10"/>
<text text-anchor="start" x="333.67" y="-15.4" font-family="Times-12" font-size="14.00"> &#160;Providers</text>
<polygon fill="#fb8072" stroke="transparent" points="406,-10 406,-30 426,-30 426,-10 406,-10"/>
<text text-anchor="start" x="429.73" y="-15.4" font-family="Times-12" font-size="14.00"> &#160;Exports</text>
<g id="clust1" class="cluster">
<title>cluster_AppModule</title>
<polygon fill="none" stroke="black" stroke-dasharray="1,5" points="45,-70 45,-195 451,-195 451,-70 45,-70"/>
</g>
<g id="clust3" class="cluster">
<title>cluster_AppModule_imports</title>
<polygon fill="none" stroke="black" points="53,-78 53,-130 443,-130 443,-78 53,-78"/>
</g>
<!-- CulturasModule -->
<g id="node1" class="node">
<title>CulturasModule</title>
<polygon fill="#8dd3c7" stroke="black" points="435.49,-122 432.49,-126 411.49,-126 408.49,-122 328.51,-122 328.51,-86 435.49,-86 435.49,-122"/>
<text text-anchor="middle" x="382" y="-99.8" font-family="Times,serif" font-size="14.00">CulturasModule</text>
</g>
<!-- AppModule -->
<g id="node4" class="node">
<title>AppModule</title>
<polygon fill="#8dd3c7" stroke="black" points="296.66,-187 293.66,-191 272.66,-191 269.66,-187 213.34,-187 213.34,-151 296.66,-151 296.66,-187"/>
<text text-anchor="middle" x="255" y="-164.8" font-family="Times,serif" font-size="14.00">AppModule</text>
</g>
<!-- CulturasModule&#45;&gt;AppModule -->
<g id="edge1" class="edge">
<title>CulturasModule&#45;&gt;AppModule</title>
<path fill="none" stroke="black" d="M382,-122.11C382,-141.34 382,-169 382,-169 382,-169 306.94,-169 306.94,-169"/>
<polygon fill="black" stroke="black" points="306.94,-165.5 296.94,-169 306.94,-172.5 306.94,-165.5"/>
</g>
<!-- FazendasModule -->
<g id="node2" class="node">
<title>FazendasModule</title>
<polygon fill="#8dd3c7" stroke="black" points="310.64,-122 307.64,-126 286.64,-126 283.64,-122 199.36,-122 199.36,-86 310.64,-86 310.64,-122"/>
<text text-anchor="middle" x="255" y="-99.8" font-family="Times,serif" font-size="14.00">FazendasModule</text>
</g>
<!-- FazendasModule&#45;&gt;AppModule -->
<g id="edge2" class="edge">
<title>FazendasModule&#45;&gt;AppModule</title>
<path fill="none" stroke="black" d="M255,-122.11C255,-122.11 255,-140.99 255,-140.99"/>
<polygon fill="black" stroke="black" points="251.5,-140.99 255,-150.99 258.5,-140.99 251.5,-140.99"/>
</g>
<!-- ProdutoresModule -->
<g id="node3" class="node">
<title>ProdutoresModule</title>
<polygon fill="#8dd3c7" stroke="black" points="181.2,-122 178.2,-126 157.2,-126 154.2,-122 60.8,-122 60.8,-86 181.2,-86 181.2,-122"/>
<text text-anchor="middle" x="121" y="-99.8" font-family="Times,serif" font-size="14.00">ProdutoresModule</text>
</g>
<!-- ProdutoresModule&#45;&gt;AppModule -->
<g id="edge3" class="edge">
<title>ProdutoresModule&#45;&gt;AppModule</title>
<path fill="none" stroke="black" d="M121,-122.11C121,-141.34 121,-169 121,-169 121,-169 203.34,-169 203.34,-169"/>
<polygon fill="black" stroke="black" points="203.34,-172.5 213.34,-169 203.34,-165.5 203.34,-172.5"/>
</g>
</g>
</svg>
